<svg xmlns="http://www.w3.org/2000/svg" xml:space="preserve" fill-rule="evenodd" stroke-linecap="round" stroke-linejoin="round" stroke-miterlimit="1.5" clip-rule="evenodd" viewBox="0 0 2423 1551">
  <path fill="none" d="M0 0h2422.18v1550.5H0z"/>
  <path fill="#2fb44a" d="M288.951 938.824h1871.77v396.85H288.951z"/>
  <text x="834.933" y="1381.22" fill="#fff" font-family="&quot;CenturyGothic&quot;,&quot;Century Gothic&quot;,sans-serif" font-size="266.667" transform="translate(-400.188 -143.036)">I<tspan x="975.22px 1217.85px 1401.37px 1654.67px 1907.2px" y="1381.22px 1381.22px 1381.22px 1381.22px 1381.22px">nsect</tspan></text>
  <text x="2077.56" y="1381.22" fill="#c9da2b" font-family="&quot;CenturyGothic&quot;,&quot;Century Gothic&quot;,sans-serif" font-size="266.667" transform="translate(-400.188 -143.036)">A<tspan x="2354.83" y="1381.22">I</tspan></text>
  <g stroke-width="12.5">
    <path fill="none" stroke="#c9da2b" d="M1418.5 458.084H942.504c-13.156 0-25.774-5.227-35.077-14.53l-90.105-90.105m601.178 170.79H595.352c-7.446 0-14.796-1.677-21.506-4.905-31.839-15.317-127.314-61.25-127.314-61.25M1418.5 590.393H477.633c-7.167 0-14.25 1.554-20.759 4.553-32.451 14.952-133.694 61.602-133.694 61.602m1095.32 0H685.148m737.302 66.155H891.389c-13.157 0-25.774 5.227-35.077 14.53-24.409 24.408-71.003 71.003-71.003 71.003"/>
    <g fill="#fff" stroke="#2fb44a">
      <circle cx="817.864" cy="353.449" r="34.233"/>
      <circle cx="443.481" cy="458.084" r="34.233"/>
      <circle cx="323.184" cy="656.548" r="34.233"/>
      <circle cx="679.375" cy="656.548" r="34.233"/>
      <circle cx="783.631" cy="808.236" r="34.233"/>
    </g>
  </g>
  <g stroke-width="12.5">
    <path fill="none" stroke="#c9da2b" d="M1031.17 458.084h475.996c13.156 0 25.774-5.227 35.077-14.53l90.105-90.105m-601.178 170.79h823.148c7.446 0 14.797-1.677 21.506-4.905 31.839-15.317 127.314-61.25 127.314-61.25M1031.17 590.393h940.867c7.168 0 14.25 1.554 20.76 4.553 32.45 14.952 133.693 61.602 133.693 61.602m-1095.32 0h733.352m-737.302 66.155h531.062c13.156 0 25.774 5.227 35.077 14.53l71.003 71.003"/>
    <g fill="#fff" stroke="#2fb44a">
      <circle cx="1637.7" cy="353.449" r="34.233"/>
      <circle cx="2007.44" cy="455.222" r="34.233"/>
      <circle cx="2126.49" cy="653.686" r="34.233"/>
      <circle cx="1764.03" cy="655.997" r="34.233"/>
      <circle cx="1664.64" cy="808.236" r="34.233"/>
    </g>
  </g>
  <circle cx="1224.84" cy="589.842" r="264.62" fill="#2fb44a"/>
  <path fill="#fff" fill-rule="nonzero" d="M1370.52 558.049h38.884v-11.907h-44.469l-29.769 35.722h-24.333c-17.016-16.837-30.959-32.561-32.257-45.665l3.006-6.514c1.804-3.917 2.763-8.258 2.781-12.568l41.277-14.218 6.085-60.907 33.859-28.209-7.627-9.145-37.586 31.329-5.822 58.168-32.514 11.199c-1.197-2.869-2.911-5.435-4.882-7.781 4.239-1.834 7.222-6.049 7.222-10.949 0-16.415-13.355-29.769-29.769-29.769h-5.954c-.28 0-.542.065-.821.083-.822-3.221-2.305-6.144-4.287-8.692l4.93-19.713-11.551-2.894-3.739 14.944c-2.602-.982-5.4-1.589-8.347-1.589-2.947 0-5.745.607-8.353 1.589l-3.739-14.944-11.544 2.894 4.929 19.713c-1.988 2.548-3.465 5.471-4.286 8.692-.28-.018-.542-.083-.822-.083h-5.954c-16.414 0-29.769 13.354-29.769 29.769 0 4.9 2.983 9.115 7.222 10.943-1.97 2.346-3.685 4.912-4.882 7.781l-32.513-11.199-5.823-58.168-37.586-31.329-7.633 9.145 33.859 28.209 6.085 60.907 41.277 14.218c.024 4.31.977 8.645 2.781 12.568l3.006 6.514c-1.298 13.098-15.241 28.822-32.257 45.665h-24.333l-29.769-35.722h-44.463v11.907h38.884l29.769 35.723h17.677c-29.305 28.28-62.515 60.329-62.515 95.266 0 49.208 22.666 59.538 41.677 59.538 7.906 0 19.766-4.489 32.454-12.342l2.911 11.651-10.925 21.844 10.651 5.329 12.89-25.786-5.043-20.183c10.146-7.555 20.279-17.01 28.894-27.864 3.894 10.294 8.675 19.029 14.283 26.042 7.805 9.758 19.808 15.355 32.996 15.355 13.116 0 25.119-5.597 32.924-15.355 5.603-7.007 10.372-15.759 14.265-26.059 8.616 10.859 18.755 20.32 28.912 27.881l-5.043 20.183 12.89 25.786 10.651-5.329-10.925-21.844 2.912-11.651c12.687 7.853 24.547 12.342 32.454 12.342 19.01 0 41.676-10.33 41.676-59.538 0-34.937-33.21-66.986-62.515-95.26h17.677l29.769-35.723Zm-174.856-59.538v-.059c7.573-.256 13.908-5.228 16.247-12.086v.238h25.864v-.238c2.334 6.852 8.668 11.83 16.247 12.086v.059c10.175 0 18.457 8.282 18.457 18.457 0 2.65-.589 5.323-1.697 7.734l-25.994 56.317c-3.584 7.746-11.413 12.753-19.951 12.753s-16.367-5.007-19.939-12.759l-25.994-56.311c-1.108-2.411-1.697-5.09-1.697-7.734 0-10.175 8.282-18.457 18.457-18.457Zm52.988 142.891h-47.63c-.375-18.975-1.762-40.861-3.019-49.071 6.329 8.246 16.189 13.348 26.834 13.348s20.505-5.102 26.834-13.348c-1.262 8.21-2.644 30.096-3.019 49.071Zm-47.63 0h47.63c0 8.168 1.387 16.135 3.781 23.815h-55.192c2.394-7.68 3.781-15.647 3.781-23.815Zm53.584-172.659c9.847 0 17.861 8.013 17.867 17.861h-17.867c-3.287 0-5.954-2.673-5.954-5.954v-11.907h5.954Zm-17.861-5.954v11.907h-23.815v-11.907c0-6.567 5.34-11.908 11.907-11.908s11.908 5.341 11.908 11.908Zm-41.677 5.954h5.954v11.907c0 3.281-2.667 5.954-5.954 5.954h-17.861c0-9.848 8.014-17.861 17.861-17.861Zm-89.306 267.919c-12.777 0-29.769-4.935-29.769-47.63 0-29.888 31.287-60.074 58.895-86.705 17.843-17.218 34.013-32.823 42.343-47.898-2.62 18.135 8.091 33.865 8.532 36.646 1.565 9.984 3.351 21.296 3.351 50.327 0 51.321-63.538 95.26-83.352 95.26Zm119.039-5.954c-9.335 0-18.171-4.072-23.624-10.883-1.697-2.126-9.234-16.373-10.771-18.885h68.856c-1.53 2.512-9.074 16.759-10.777 18.879-5.441 6.817-14.277 10.889-23.684 10.889Zm34.461-29.768h-68.856c-1.553-3.686-3-7.597-4.292-11.813 2.417-3.882 9.21-19.79 11.127-23.91h55.192c1.911 4.114 8.71 20.022 11.121 23.892-1.297 4.222-2.738 8.145-4.292 11.831Zm114.419-11.908c0 42.695-16.992 47.63-29.768 47.63-19.815 0-83.353-43.939-83.353-95.26 0-29.031 1.786-40.343 3.352-50.327.44-2.787 11.151-18.511 8.531-36.646 8.336 15.075 24.5 30.68 42.344 47.898 27.607 26.631 58.894 56.817 58.894 86.705Z"/>
</svg>
